PathFileType	4	(X/Y/Z)	/Users/itak/Documents/Research/Walk-IL/dataset/trc/00223_00009.trc
DataRate	CameraRate	NumFrames	NumMarkers	Units	OrigDataRate	OrigDataStartFrame	OrigNumFrames
100.000000	100.000000	4	53	mm	100.000000	307	492
Frame#	Time	RPSI			LPSI			L3			STRN			T10			C7			CLAV			RBAK			LBAK			LSHO			LUPA			LAEL			LAOL			LWTS			LWPS			LFRA			LIFD			LHPS			LHTS			RSHO			RUPA			RAEL			RAOL			RWTS			RWPS			RFRA			RIFD			RHTS			RHPS			RBHD			LFHD			RFHD			LBHD			LHIP			RHIP			RASI			LASI			LKNE			LTHI			LANK			LTIP			LTOE			LMT1			LMT5			LHEE			RKNE			RANK			RTIP			RTOE			RMT1			RMT5			RHEE			RTHI			
		X1	Y1	Z1	X2	Y2	Z2	X3	Y3	Z3	X4	Y4	Z4	X5	Y5	Z5	X6	Y6	Z6	X7	Y7	Z7	X8	Y8	Z8	X9	Y9	Z9	X10	Y10	Z10	X11	Y11	Z11	X12	Y12	Z12	X13	Y13	Z13	X14	Y14	Z14	X15	Y15	Z15	X16	Y16	Z16	X17	Y17	Z17	X18	Y18	Z18	X19	Y19	Z19	X20	Y20	Z20	X21	Y21	Z21	X22	Y22	Z22	X23	Y23	Z23	X24	Y24	Z24	X25	Y25	Z25	X26	Y26	Z26	X27	Y27	Z27	X28	Y28	Z28	X29	Y29	Z29	X30	Y30	Z30	X31	Y31	Z31	X32	Y32	Z32	X33	Y33	Z33	X34	Y34	Z34	X35	Y35	Z35	X36	Y36	Z36	X37	Y37	Z37	X38	Y38	Z38	X39	Y39	Z39	X40	Y40	Z40	X41	Y41	Z41	X42	Y42	Z42	X43	Y43	Z43	X44	Y44	Z44	X45	Y45	Z45	X46	Y46	Z46	X47	Y47	Z47	X48	Y48	Z48	X49	Y49	Z49	X50	Y50	Z50	X51	Y51	Z51	X52	Y52	Z52	X53	Y53	Z53	

308	3.07	60.47542190551758	1046.268188476562	-56.30303955078125	62.94245147705078	1048.896362304688	64.32778167724609	63.40924453735352	1131.239135742188	22.42514610290527	-189.7422027587891	1311.154052734375	34.75681686401367	66.95214080810547	1259.363647460938	19.81168556213379	-3.78610634803772	1518.8701171875	20.95180320739746	-166.1908264160156	1428.899658203125	29.96869087219238	73.54152679443359	1381.573120117188	-51.83113861083984	20.68599510192871	1483.443725585938	134.2823333740234	-68.00909423828125	1483.514038085938	191.6668701171875	-44.27327346801758	1367.434326171875	274.5531311035156	-82.26328277587891	1158.986328125	308.81787109375	-14.79294204711914	1130.3369140625	262.6342163085938	-231.4991912841797	963.3715209960938	237.8767242431641	-213.4932556152344	933.08837890625	315.5186462402344	-132.1413116455078	1059.846069335938	316.8526916503906	-307.3275451660156	784.5487060546875	232.0713958740234	-259.8394775390625	856.6156616210938	304.9834289550781	-299.4500122070312	880.7960815429688	254.1829071044922	-68.14231109619141	1469.940185546875	-144.8096466064453	-47.94255828857422	1403.6572265625	-210.2420043945312	-9.874967575073242	1123.719482421875	-237.1049957275391	16.7174186706543	1119.036376953125	-145.4317169189453	-133.1196899414062	899.93408203125	-212.5037231445312	-71.63840484619141	890.8284912109375	-269.5123291015625	-28.86394119262695	1054.414306640625	-251.6392211914062	-128.7586517333984	705.9105224609375	-204.8881530761719	-157.7950592041016	775.5219116210938	-229.9962615966797	-100.1150894165039	779.83251953125	-273.1775817871094	-46.30047225952148	1670.697021484375	-35.31508636474609	-246.7462768554688	1715.992919921875	61.69118881225586	-248.8769989013672	1708.557250976562	-38.12261962890625	-88.01128387451172	1685.644775390625	97.79007720947266	-29.6751766204834	982.708740234375	207.6770629882812	-39.78873825073242	1012.385925292969	-157.2029266357422	-136.6570281982422	1054.351440429688	-115.0270309448242	-131.9870147705078	1025.949829101562	166.4301910400391	-81.63651275634766	500.68798828125	146.9826812744141	-74.06131744384766	644.3456420898438	179.0402069091797	37.49287033081055	31.29267501831055	115.9271697998047	-16.98311424255371	276.6183776855469	140.6237182617188	-169.1625061035156	46.56850051879883	41.45915603637695	-98.20449066162109	40.97106552124023	4.73991060256958	-93.73030090332031	33.74199676513672	120.4316787719727	104.3837432861328	42.59619140625	69.61107635498047	-198.7810211181641	538.6211547851562	-137.2338714599609	-122.1129989624023	47.01809310913086	-141.406982421875	-210.5997314453125	415.4912719726562	-126.5773162841797	-325.7557678222656	68.62660980224609	-88.26722717285156	-269.7353820800781	57.38726425170898	-47.38897705078125	-232.2533416748047	48.86999893188477	-158.987548828125	-56.41365051269531	47.95431900024414	-86.02310180664062	-142.4871673583984	802.1557006835938	-170.3182678222656	
309	3.08	65.94918823242188	1046.574340820312	-56.39973831176758	68.68473052978516	1049.2939453125	64.24944305419922	69.27907562255859	1131.447387695312	22.41850662231445	-183.6090087890625	1311.712280273438	35.25430679321289	72.59964752197266	1259.6171875	20.19668388366699	2.539246559143066	1519.263671875	21.55812072753906	-159.9173431396484	1429.462646484375	30.47360610961914	79.76367950439453	1381.762329101562	-51.13610076904297	26.92159461975098	1483.764770507812	134.8777313232422	-61.70851135253906	1483.845458984375	192.2948150634766	-37.68696212768555	1367.75830078125	275.2016906738281	-74.37507629394531	1159.07568359375	309.524169921875	-6.73878002166748	1130.954711914062	263.3321228027344	-221.6529693603516	961.834716796875	238.9625549316406	-203.1325073242188	931.7913818359375	316.6123046875	-123.206916809082	1059.445556640625	317.7569274902344	-295.5945434570312	782.22412109375	233.4565734863281	-248.7499542236328	854.8302001953125	306.2120971679688	-288.78173828125	878.587890625	255.4725189208984	-61.6378173828125	1470.398803710938	-144.248779296875	-41.39275360107422	1404.12548828125	-209.6932678222656	-3.672157526016235	1124.082275390625	-236.5082397460938	22.92774772644043	1119.392700195312	-144.8680877685547	-127.9250717163086	900.867431640625	-211.5429382324219	-66.37433624267578	891.29296875	-268.4979248046875	-22.94683265686035	1054.781982421875	-250.9938201904297	-125.0026550292969	706.9072265625	-203.7552032470703	-153.498291015625	776.7072143554688	-228.9966888427734	-95.65791320800781	780.5209350585938	-272.0798034667969	-39.74697494506836	1671.123291015625	-34.62316513061523	-240.1761627197266	1716.713989257812	62.19114685058594	-242.2627105712891	1709.260864257812	-37.63056945800781	-81.50748443603516	1686.139770507812	98.42622375488281	-23.58162498474121	983.41552734375	207.8978881835938	-34.63003158569336	1012.570251464844	-156.9298858642578	-131.3536987304688	1054.719604492188	-114.5171890258789	-125.998649597168	1026.64013671875	166.9632110595703	-77.14425659179688	501.4638977050781	147.6754150390625	-68.89630889892578	645.0715942382812	179.7484741210938	37.48835372924805	31.01646423339844	116.0569458007812	-14.40616893768311	276.9910888671875	141.0308837890625	-168.8732604980469	47.12726593017578	41.75867080688477	-97.99740600585938	41.33527374267578	4.901432037353516	-93.65326690673828	33.69805908203125	120.5068893432617	104.5135650634766	42.24995422363281	69.75907897949219	-190.1512756347656	537.4561767578125	-136.3806304931641	-99.97517395019531	48.10398101806641	-140.6936950683594	-198.7230072021484	414.0201416015625	-125.8603439331055	-303.890869140625	66.64791870117188	-88.25745391845703	-248.0178070068359	55.9896240234375	-47.12813568115234	-210.0023956298828	48.20809555053711	-158.7100067138672	-34.48989868164062	50.10826110839844	-85.09876251220703	-136.5968933105469	801.6964721679688	-168.8750762939453	
310	3.09	71.36585235595703	1046.767700195312	-56.52226257324219	74.44850921630859	1049.596435546875	64.05971527099609	75.14837646484375	1131.573364257812	22.33331680297852	-177.4931030273438	1312.177368164062	35.70833206176758	78.19663238525391	1259.793212890625	20.45011711120605	8.844875335693359	1519.57080078125	22.05041122436523	-153.6697235107422	1429.939453125	30.92885589599609	85.92281341552734	1381.86376953125	-50.59872817993164	33.17868423461914	1483.9892578125	135.3508148193359	-55.37618637084961	1484.0693359375	192.8289489746094	-31.12243270874023	1367.972045898438	275.7447814941406	-66.73690032958984	1159.105346679688	310.1049194335938	1.173032402992249	1131.503295898438	264.0499572753906	-211.5977935791016	959.9255981445312	239.9815826416016	-192.6979675292969	930.2987670898438	317.7059631347656	-114.3977966308594	1058.947875976562	318.584716796875	-283.2701416015625	779.399658203125	234.9365081787109	-237.379150390625	852.7371215820312	307.4878845214844	-277.7484436035156	875.9074096679688	256.6913146972656	-55.24757385253906	1470.771240234375	-143.772705078125	-34.99324035644531	1404.510498046875	-209.2429809570312	2.254266738891602	1124.357055664062	-236.0813903808594	28.95517921447754	1119.641723632812	-144.4996795654297	-122.9310684204102	901.6963500976562	-210.6769104003906	-61.3890380859375	891.705322265625	-267.67822265625	-17.32823181152344	1055.077758789062	-250.5189514160156	-121.4624557495117	707.8092041015625	-202.9043579101562	-149.4098663330078	777.8086547851562	-228.1690673828125	-91.48244476318359	781.1680908203125	-271.243408203125	-33.27748870849609	1671.484497070312	-33.96800994873047	-233.6720581054688	1717.313110351562	62.67033767700195	-235.7277374267578	1709.864990234375	-37.15483474731445	-75.08572387695312	1686.540161132812	99.02095794677734	-17.53837585449219	984.0499267578125	208.1205291748047	-29.58345794677734	1012.608642578125	-156.7267608642578	-126.0990524291992	1054.947631835938	-114.0546722412109	-120.0556945800781	1027.27734375	167.4596099853516	-72.94281768798828	502.1716003417969	148.3997344970703	-63.95881652832031	645.7265625	180.4843292236328	37.47946548461914	30.74898338317871	116.1976547241211	-12.0016450881958	277.3250732421875	141.4783172607422	-168.5760650634766	47.67544174194336	42.02717208862305	-97.79468536376953	41.69362258911133	5.080831527709961	-93.58979034423828	33.65158462524414	120.5862274169922	104.6091613769531	41.94015502929688	69.93868255615234	-181.1967468261719	536.0909423828125	-135.5812835693359	-77.71772766113281	49.40744400024414	-139.9613189697266	-186.5532989501953	412.4851379394531	-125.188362121582	-281.9855041503906	64.73983764648438	-88.47882843017578	-226.2723388671875	54.70143508911133	-47.04709625244141	-187.6021118164062	47.72754669189453	-158.5701446533203	-12.55568027496338	52.47652435302734	-84.07778167724609	-130.5322265625	801.03173828125	-167.5469970703125	
311	3.1	76.74063873291016	1046.86669921875	-56.63930511474609	80.22549438476562	1049.816772460938	63.81400299072266	81.00685882568359	1131.6328125	22.19384002685547	-171.3955383300781	1312.567993164062	36.11716461181641	83.77197265625	1259.905639648438	20.57252311706543	15.13020133972168	1519.805419921875	22.41999816894531	-147.4430694580078	1430.340209960938	31.33635902404785	92.01657867431641	1381.897705078125	-50.23663711547852	39.46432113647461	1484.131225585938	135.6882934570312	-49.01239013671875	1484.207885742188	193.2603149414062	-24.56003189086914	1368.096313476562	276.1737365722656	-59.32998275756836	1159.09375	310.542724609375	8.953350067138672	1131.999145507812	264.7528076171875	-201.3401031494141	957.6834106445312	240.9376373291016	-182.1921844482422	928.6520385742188	318.7988891601562	-105.7103805541992	1058.379028320312	319.3214111328125	-270.3284912109375	776.12255859375	236.529296875	-225.7122497558594	850.3834228515625	308.8193664550781	-266.3518981933594	872.7920532226562	257.8455505371094	-48.9796028137207	1471.07763671875	-143.3890075683594	-28.76384544372559	1404.829345703125	-208.8975982666016	7.898471355438232	1124.566284179688	-235.8290863037109	34.79864501953125	1119.809204101562	-144.3320770263672	-118.1216506958008	902.4338989257812	-209.9016265869141	-56.68205642700195	892.0846557617188	-267.050048828125	-12.0061092376709	1055.321411132812	-250.2139892578125	-118.0751647949219	708.62548828125	-202.3040313720703	-145.4915161132812	778.82861328125	-227.4860076904297	-87.55663299560547	781.7830810546875	-270.6436462402344	-26.88776779174805	1671.803344726562	-33.35935592651367	-227.2366333007812	1717.799560546875	63.14108657836914	-229.2744140625	1710.3818359375	-36.68366241455078	-68.73534393310547	1686.859252929688	99.57388305664062	-11.58053970336914	984.6094360351562	208.3561248779297	-24.56673049926758	1012.520812988281	-156.5612335205078	-120.8651351928711	1055.057006835938	-113.6371154785156	-114.1817016601562	1027.87158203125	167.9121551513672	-69.02304840087891	502.821044921875	149.1408996582031	-59.25261306762695	646.3167724609375	181.2282104492188	37.47912216186523	30.49612998962402	116.3530731201172	-9.769688606262207	277.623046875	141.9578857421875	-168.2829437255859	48.20404815673828	42.26443481445312	-97.59864807128906	42.04115295410156	5.272520065307617	-93.53780364990234	33.60435485839844	120.667106628418	104.6699295043945	41.65392684936523	70.14282989501953	-171.9154510498047	534.5667114257812	-134.826904296875	-55.40587615966797	50.94055557250977	-139.2148284912109	-174.1216125488281	410.9217834472656	-124.5451431274414	-260.0765380859375	62.89536285400391	-88.83960723876953	-204.5129547119141	53.52919006347656	-47.08260726928711	-165.1212463378906	47.43426513671875	-158.5117797851562	9.355369567871094	55.0698356628418	-82.99317169189453	-124.2670211791992	800.1906127929688	-166.3662109375	
